<svg width="32" height="32" viewBox="0 0 32 32" xmlns="http://www.w3.org/2000/svg">
    <defs>
        <!-- Gradient for the background -->
        <radialGradient id="bgGradient" cx="0.3" cy="0.3">
            <stop offset="0%" stop-color="#8b5cf6"/>
            <stop offset="100%" stop-color="#3730a3"/>
        </radialGradient>

        <!-- Gradient for the star -->
        <linearGradient id="starGradient" x1="0%" y1="0%" x2="100%" y2="100%">
            <stop offset="0%" stop-color="#fbbf24"/>
            <stop offset="50%" stop-color="#f59e0b"/>
            <stop offset="100%" stop-color="#d97706"/>
        </linearGradient>

        <!-- Glowing effect -->
        <filter id="glow">
            <feGaussianBlur stdDeviation="2" result="coloredBlur"/>
            <feMerge>
                <feMergeNode in="coloredBlur"/>
                <feMergeNode in="SourceGraphic"/>
            </feMerge>
        </filter>
    </defs>

    <!-- Background with rounded corners -->
    <rect width="32" height="32" rx="6" fill="url(#bgGradient)"/>

    <!-- Subtle circuit pattern -->
    <g opacity="0.2" stroke="#a78bfa" stroke-width="0.5" fill="none">
        <path d="M2 8h6v4h4v-4h6"/>
        <path d="M8 16h4v4h8"/>
        <path d="M4 24h8v-4h8"/>
        <circle cx="8" cy="8" r="0.5" fill="#a78bfa"/>
        <circle cx="20" cy="12" r="0.5" fill="#a78bfa"/>
        <circle cx="24" cy="20" r="0.5" fill="#a78bfa"/>
    </g>

    <!-- Main star shape (the "A" in A*) -->
    <g filter="url(#glow)">
        <path d="M16 6 L18.5 13 L26 13 L20.5 18 L23 25 L16 21 L9 25 L11.5 18 L6 13 L13.5 13 Z"
              fill="url(#starGradient)"
              stroke="#fcd34d"
              stroke-width="0.5"/>
    </g>

    <!-- Dynamic path trail -->
    <g opacity="0.8">
        <path d="M8 26 Q12 22 16 21 Q20 20 24 6"
              stroke="#06d6a0"
              stroke-width="2"
              fill="none"
              stroke-linecap="round"
              stroke-dasharray="2,1"/>

        <!-- Animated dots along the path -->
        <circle cx="10" cy="24" r="1" fill="#06d6a0" opacity="0.9"/>
        <circle cx="14" cy="22" r="0.8" fill="#06d6a0" opacity="0.7"/>
        <circle cx="18" cy="20" r="0.6" fill="#06d6a0" opacity="0.5"/>
        <circle cx="22" cy="8" r="1" fill="#06d6a0" opacity="0.9"/>
    </g>

    <!-- Small "A*" text with shadow -->
    <g>
        <text x="16.5" y="17.5" font-family="Arial Black, sans-serif" font-size="6" font-weight="900"
              fill="#1f2937" text-anchor="middle" opacity="0.3">A*</text>
        <text x="16" y="17" font-family="Arial Black, sans-serif" font-size="6" font-weight="900"
              fill="#f9fafb" text-anchor="middle">A*</text>
    </g>
</svg>